<svg width="21" height="21" viewBox="0 0 21 21" fill="none" xmlns="http://www.w3.org/2000/svg">
<path fill-rule="evenodd" clip-rule="evenodd" d="M1.33334 4.82422C1.33334 2.19901 1.36145 1.32422 4.83334 1.32422C8.30523 1.32422 8.33334 2.19901 8.33334 4.82422C8.33334 7.44943 8.34442 8.32422 4.83334 8.32422C1.32227 8.32422 1.33334 7.44943 1.33334 4.82422Z" stroke="#64748B" stroke-width="1.5" stroke-linecap="round" stroke-linejoin="round"/>
<path fill-rule="evenodd" clip-rule="evenodd" d="M12.3333 4.82422C12.3333 2.19901 12.3615 1.32422 15.8333 1.32422C19.3052 1.32422 19.3333 2.19901 19.3333 4.82422C19.3333 7.44943 19.3444 8.32422 15.8333 8.32422C12.3223 8.32422 12.3333 7.44943 12.3333 4.82422Z" stroke="#64748B" stroke-width="1.5" stroke-linecap="round" stroke-linejoin="round"/>
<path fill-rule="evenodd" clip-rule="evenodd" d="M1.33334 15.8242C1.33334 13.199 1.36145 12.3242 4.83334 12.3242C8.30523 12.3242 8.33334 13.199 8.33334 15.8242C8.33334 18.4494 8.34442 19.3242 4.83334 19.3242C1.32227 19.3242 1.33334 18.4494 1.33334 15.8242Z" stroke="#64748B" stroke-width="1.5" stroke-linecap="round" stroke-linejoin="round"/>
<path fill-rule="evenodd" clip-rule="evenodd" d="M12.3333 15.8242C12.3333 13.199 12.3615 12.3242 15.8333 12.3242C19.3052 12.3242 19.3333 13.199 19.3333 15.8242C19.3333 18.4494 19.3444 19.3242 15.8333 19.3242C12.3223 19.3242 12.3333 18.4494 12.3333 15.8242Z" stroke="#64748B" stroke-width="1.5" stroke-linecap="round" stroke-linejoin="round"/>
</svg>
