<svg width="24" height="25" viewBox="0 0 24 25" fill="none" xmlns="http://www.w3.org/2000/svg">
<path d="M11.5059 11.3633C11.5059 8.4638 13.7848 6.10969 16.6126 6.06207V2.32422C11.9043 2.32422 8.08676 6.22224 8.08676 11.0315C8.08676 11.2356 8.09453 11.4383 8.10795 11.6389H11.5136C11.5087 11.548 11.5059 11.4564 11.5059 11.3633Z" fill="#7E59E7"/>
<path d="M16.6127 11.6394V7.66351C14.603 7.66351 12.9732 9.32791 12.9732 11.3804C12.9732 11.4677 12.9761 11.5543 12.9824 11.6402H16.6127V11.6394Z" fill="#CCC88A"/>
<path d="M16.5064 13.0094H13.0054C13.0096 13.0946 13.0124 13.1797 13.0124 13.2655C13.0124 16.111 10.7766 18.4211 8.00177 18.468V22.3241C12.7101 22.3241 16.5276 18.4261 16.5276 13.6169C16.5269 13.4127 16.5198 13.2107 16.5064 13.0094Z" fill="#7E59E7"/>
<path d="M8 12.9807V16.8145C9.93772 16.8145 11.5088 15.21 11.5088 13.231C11.5088 13.1466 11.506 13.0636 11.5003 12.9807H8Z" fill="#CCC88A"/>
</svg>
