<svg width="24" height="24" viewBox="0 0 24 24" fill="none" xmlns="http://www.w3.org/2000/svg">
<mask id="mask0_711_407" style="mask-type:alpha" maskUnits="userSpaceOnUse" x="2" y="2" width="20" height="20">
<path fill-rule="evenodd" clip-rule="evenodd" d="M2 2H21.4768V21.477H2V2Z" fill="white"/>
</mask>
<g mask="url(#mask0_711_407)">
<path fill-rule="evenodd" clip-rule="evenodd" d="M11.7388 3.5C7.19579 3.5 3.49979 7.195 3.49979 11.738C3.49979 16.281 7.19579 19.977 11.7388 19.977C16.2808 19.977 19.9768 16.281 19.9768 11.738C19.9768 7.195 16.2808 3.5 11.7388 3.5ZM11.7388 21.477C6.36879 21.477 1.99979 17.108 1.99979 11.738C1.99979 6.368 6.36879 2 11.7388 2C17.1088 2 21.4768 6.368 21.4768 11.738C21.4768 17.108 17.1088 21.477 11.7388 21.477Z" fill="#001718"/>
</g>
<mask id="mask1_711_407" style="mask-type:alpha" maskUnits="userSpaceOnUse" x="17" y="17" width="6" height="6">
<path fill-rule="evenodd" clip-rule="evenodd" d="M17.2402 17.707H22.2643V22.7218H17.2402V17.707Z" fill="white"/>
</mask>
<g mask="url(#mask1_711_407)">
<path fill-rule="evenodd" clip-rule="evenodd" d="M21.5145 22.7218C21.3235 22.7218 21.1315 22.6488 20.9845 22.5028L17.4605 18.9888C17.1675 18.6958 17.1665 18.2208 17.4595 17.9278C17.7515 17.6328 18.2265 17.6348 18.5205 17.9258L22.0445 21.4408C22.3375 21.7338 22.3385 22.2078 22.0455 22.5008C21.8995 22.6488 21.7065 22.7218 21.5145 22.7218Z" fill="#001718"/>
</g>
</svg>
