<svg width="25" height="25" viewBox="0 0 25 25" fill="none" xmlns="http://www.w3.org/2000/svg">
<g clip-path="url(#clip0_788_177)">
<path d="M1.66669 21.8624L10.813 10.9764C10.8639 10.9159 10.9615 10.9349 10.9859 11.0101L13.5191 18.8238M13.5191 18.8238L14.4615 21.7307C14.4826 21.7957 14.4341 21.8624 14.3657 21.8624H10.1507C10.0566 21.8624 10.0139 21.7447 10.0863 21.6844L13.5191 18.8238ZM13.5191 18.8238L18.8459 14.3848C18.8927 14.3458 18.9632 14.357 18.9956 14.4087L23.6667 21.8624" stroke="#64748B" stroke-width="1.30892" stroke-linecap="round"/>
<path d="M21.7114 9.46081C21.7114 11.0178 20.4492 12.28 18.8922 12.28C17.3351 12.28 16.0729 11.0178 16.0729 9.46081C16.0729 7.9038 17.3351 6.6416 18.8922 6.6416C20.4492 6.6416 21.7114 7.9038 21.7114 9.46081ZM17.2006 9.46081C17.2006 10.395 17.958 11.1523 18.8922 11.1523C19.8264 11.1523 20.5837 10.395 20.5837 9.46081C20.5837 8.5266 19.8264 7.76928 18.8922 7.76928C17.958 7.76928 17.2006 8.5266 17.2006 9.46081Z" fill="#64748B"/>
<path d="M13.7973 6.43444C13.7973 7.99144 12.5351 9.25364 10.9781 9.25364C9.42108 9.25364 8.15887 7.99144 8.15887 6.43444C8.15887 4.87743 9.42108 3.61523 10.9781 3.61523C12.5351 3.61523 13.7973 4.87743 13.7973 6.43444ZM9.28656 6.43444C9.28656 7.36864 10.0439 8.12596 10.9781 8.12596C11.9123 8.12596 12.6696 7.36864 12.6696 6.43444C12.6696 5.50024 11.9123 4.74292 10.9781 4.74292C10.0439 4.74292 9.28656 5.50024 9.28656 6.43444Z" fill="#64748B"/>
</g>
<defs>
<clipPath id="clip0_788_177">
<rect width="24" height="24" fill="white" transform="translate(0.666687 0.324219)"/>
</clipPath>
</defs>
</svg>
